<?xml version="1.0" encoding="UTF-8" standalone="no"?>
<svg width="43px" height="43px" viewBox="0 0 43 43" version="1.1" xmlns="http://www.w3.org/2000/svg" xmlns:xlink="http://www.w3.org/1999/xlink">
    <!-- Generator: Sketch 47.1 (45422) - http://www.bohemiancoding.com/sketch -->
    <title>Group 8 Copy</title>
    <desc>Created with Sketch.</desc>
    <defs>
        <polygon id="path-1" points="42.5098982 43 0.38170181 43 0.38170181 0.8314 42.5098982 0.8314"></polygon>
    </defs>
    <g id="Page-1" stroke="none" stroke-width="1" fill="none" fill-rule="evenodd">
        <g id="Group-8-Copy">
            <mask id="mask-2" fill="white">
                <use xlink:href="#path-1"></use>
            </mask>
            <g id="Clip-7"></g>
            <path d="M32.6673,8.1684 C31.2743,8.1754 30.1533,9.2914 30.1413,10.6814 C30.1283,12.0694 31.2853,13.2324 32.6853,13.2414 C34.0783,13.2504 35.2163,12.1004 35.2143,10.6844 C35.2113,9.2534 34.1063,8.1614 32.6673,8.1684 M21.4413,28.9534 C25.2883,28.9574 28.4593,25.7904 28.4623,21.9404 C28.4653,18.0934 25.2953,14.9184 21.4503,14.9194 C17.5963,14.9214 14.4333,18.0814 14.4293,21.9314 C14.4253,25.7784 17.5923,28.9494 21.4413,28.9534 M32.2603,21.9474 C32.2603,27.9484 27.4463,32.7524 21.4353,32.7514 C15.3983,32.7514 10.6283,27.9304 10.6313,21.8334 C10.6343,15.8894 15.4973,11.1184 21.5493,11.1224 C27.4603,11.1254 32.2603,15.9764 32.2603,21.9474 M38.7803,21.5994 C38.7523,21.5984 38.7233,21.5974 38.6953,21.5974 C38.6953,19.9354 38.7293,18.2734 38.6853,16.6134 C38.6433,15.0164 38.5823,13.4154 38.4213,11.8274 C38.0593,8.2654 35.9393,5.8114 32.4343,5.1444 C30.5923,4.7944 28.6783,4.7404 26.7933,4.7064 C23.2253,4.6414 19.6553,4.6494 16.0873,4.7034 C14.3083,4.7304 12.5123,4.7974 10.7583,5.0704 C7.7133,5.5454 5.6323,7.2884 4.7903,10.3084 C4.5203,11.2764 4.3623,12.3024 4.3383,13.3064 C4.2473,17.1184 4.1913,20.9334 4.2043,24.7464 C4.2133,27.1734 4.2683,29.6084 4.4793,32.0244 C4.7963,35.6454 7.0003,38.1144 10.5663,38.7624 C12.3983,39.0954 14.2963,39.1364 16.1673,39.1684 C19.6893,39.2274 23.2133,39.2114 26.7353,39.1734 C28.3473,39.1564 29.9633,39.0664 31.5673,38.9074 C33.0673,38.7584 34.4723,38.2694 35.6793,37.3104 C37.6363,35.7564 38.3923,33.6134 38.5073,31.2354 C38.6633,28.0264 38.6953,24.8114 38.7803,21.5994 M21.4823,0.8314 C24.3113,0.8814 27.1403,0.9094 29.9683,0.9884 C32.4243,1.0574 34.8043,1.4944 36.9373,2.7964 C39.7343,4.5034 41.4453,7.0204 41.9973,10.2174 C42.3283,12.1304 42.4413,14.0974 42.4713,16.0424 C42.5353,20.2244 42.5103,24.4094 42.4643,28.5924 C42.4403,30.7884 42.3673,32.9924 41.6393,35.1044 C40.2263,39.1994 37.3543,41.6864 33.1403,42.4874 C31.2363,42.8494 29.2623,42.9324 27.3173,42.9624 C23.1493,43.0254 18.9803,43.0004 14.8123,42.9554 C12.6163,42.9324 10.4123,42.8594 8.2993,42.1374 C4.1993,40.7354 1.7103,37.8614 0.8973,33.6524 C0.5303,31.7504 0.4503,29.7744 0.4203,27.8294 C0.3563,23.6474 0.3813,19.4624 0.4273,15.2794 C0.4513,13.0834 0.5243,10.8794 1.2533,8.7674 C2.6653,4.6734 5.5383,2.1864 9.7513,1.3854 C11.6553,1.0234 13.6293,0.9834 15.5753,0.9074 C17.5413,0.8304 19.5123,0.8904 21.4813,0.8904 C21.4813,0.8704 21.4813,0.8504 21.4823,0.8314" id="Fill-6" fill="#FFFFFF" mask="url(#mask-2)"></path>
        </g>
    </g>
</svg>