<?xml version="1.0" encoding="UTF-8" standalone="no"?>
<svg width="43px" height="35px" viewBox="0 0 43 35" version="1.1" xmlns="http://www.w3.org/2000/svg" xmlns:xlink="http://www.w3.org/1999/xlink">
    <!-- Generator: Sketch 47.1 (45422) - http://www.bohemiancoding.com/sketch -->
    <title>Fill 4 Copy</title>
    <desc>Created with Sketch.</desc>
    <defs></defs>
    <g id="Page-1" stroke="none" stroke-width="1" fill="none" fill-rule="evenodd">
        <path d="M42.532,4.092 C40.967,4.786 39.285,5.255 37.52,5.465 C39.321,4.385 40.705,2.677 41.357,0.638 C39.671,1.639 37.803,2.365 35.816,2.755 C34.224,1.06 31.957,0 29.445,0 C24.627,0 20.719,3.908 20.719,8.726 C20.719,9.41 20.797,10.076 20.947,10.715 C13.695,10.351 7.265,6.877 2.961,1.597 C2.21,2.886 1.779,4.385 1.779,5.984 C1.779,9.011 3.32,11.683 5.661,13.248 C4.231,13.202 2.885,12.81 1.709,12.155 C1.708,12.192 1.708,12.229 1.708,12.266 C1.708,16.494 4.717,20.02 8.708,20.821 C7.977,21.021 7.205,21.128 6.409,21.128 C5.846,21.128 5.3,21.073 4.767,20.972 C5.878,24.438 9.1,26.961 12.919,27.031 C9.932,29.372 6.17,30.767 2.081,30.767 C1.377,30.767 0.682,30.726 0,30.645 C3.86,33.121 8.448,34.566 13.375,34.566 C29.426,34.566 38.203,21.27 38.203,9.737 C38.203,9.36 38.195,8.983 38.178,8.609 C39.884,7.379 41.362,5.842 42.532,4.092" id="Fill-4-Copy" fill="#F1F2F2"></path>
    </g>
</svg>